<svg width="55" height="55" viewBox="0 0 55 55" fill="none" xmlns="http://www.w3.org/2000/svg">
<path opacity="0.25" d="M25.6667 7.33333V1.83333C25.6667 1.3471 25.8598 0.880788 26.2036 0.536971C26.5475 0.193154 27.0138 0 27.5 0C27.9862 0 28.4525 0.193154 28.7964 0.536971C29.1402 0.880788 29.3333 1.3471 29.3333 1.83333V7.33333C29.3333 7.81956 29.1402 8.28588 28.7964 8.6297C28.4525 8.97351 27.9862 9.16667 27.5 9.16667C27.0138 9.16667 26.5475 8.97351 26.2036 8.6297C25.8598 8.28588 25.6667 7.81956 25.6667 7.33333ZM27.5 12.8333C24.5992 12.8333 21.7636 13.6935 19.3516 15.3051C16.9397 16.9167 15.0599 19.2073 13.9498 21.8873C12.8397 24.5673 12.5492 27.5163 13.1151 30.3613C13.6811 33.2064 15.0779 35.8197 17.1291 37.8709C19.1803 39.9221 21.7936 41.3189 24.6387 41.8849C27.4837 42.4508 30.4327 42.1603 33.1127 41.0502C35.7927 39.9402 38.0833 38.0603 39.6949 35.6484C41.3065 33.2364 42.1667 30.4008 42.1667 27.5C42.1624 23.6115 40.6158 19.8834 37.8662 17.1338C35.1166 14.3842 31.3885 12.8376 27.5 12.8333ZM11.5363 14.1304C11.8803 14.4744 12.3468 14.6677 12.8333 14.6677C13.3198 14.6677 13.7864 14.4744 14.1304 14.1304C14.4744 13.7864 14.6677 13.3198 14.6677 12.8333C14.6677 12.3468 14.4744 11.8803 14.1304 11.5363L10.4637 7.86958C10.1197 7.52558 9.65317 7.33231 9.16667 7.33231C8.68017 7.33231 8.21359 7.52558 7.86958 7.86958C7.52558 8.21359 7.33231 8.68017 7.33231 9.16667C7.33231 9.65317 7.52558 10.1197 7.86958 10.4637L11.5363 14.1304ZM11.5363 40.8696L7.86958 44.5363C7.52558 44.8803 7.33231 45.3468 7.33231 45.8333C7.33231 46.3198 7.52558 46.7864 7.86958 47.1304C8.21359 47.4744 8.68017 47.6677 9.16667 47.6677C9.65317 47.6677 10.1197 47.4744 10.4637 47.1304L14.1304 43.4638C14.3008 43.2934 14.4359 43.0912 14.5281 42.8686C14.6202 42.6461 14.6677 42.4076 14.6677 42.1667C14.6677 41.9258 14.6202 41.6872 14.5281 41.4647C14.4359 41.2421 14.3008 41.0399 14.1304 40.8696C13.9601 40.6992 13.7579 40.5641 13.5353 40.4719C13.3128 40.3798 13.0742 40.3323 12.8333 40.3323C12.5924 40.3323 12.3539 40.3798 12.1314 40.4719C11.9088 40.5641 11.7066 40.6992 11.5363 40.8696ZM42.1667 14.6667C42.4075 14.6669 42.646 14.6196 42.8686 14.5276C43.0911 14.4356 43.2934 14.3006 43.4638 14.1304L47.1304 10.4637C47.4744 10.1197 47.6677 9.65317 47.6677 9.16667C47.6677 8.68017 47.4744 8.21359 47.1304 7.86958C46.7864 7.52558 46.3198 7.33231 45.8333 7.33231C45.3468 7.33231 44.8803 7.52558 44.5363 7.86958L40.8696 11.5363C40.6129 11.7927 40.4381 12.1194 40.3672 12.4753C40.2963 12.8311 40.3326 13.1999 40.4715 13.5351C40.6104 13.8703 40.8456 14.1567 41.1474 14.3582C41.4491 14.5596 41.8039 14.667 42.1667 14.6667ZM43.4638 40.8696C43.1197 40.5256 42.6532 40.3323 42.1667 40.3323C41.6802 40.3323 41.2136 40.5256 40.8696 40.8696C40.5256 41.2136 40.3323 41.6802 40.3323 42.1667C40.3323 42.6532 40.5256 43.1197 40.8696 43.4638L44.5363 47.1304C44.7066 47.3008 44.9088 47.4359 45.1314 47.5281C45.3539 47.6202 45.5924 47.6677 45.8333 47.6677C46.0742 47.6677 46.3128 47.6202 46.5353 47.5281C46.7579 47.4359 46.9601 47.3008 47.1304 47.1304C47.3008 46.9601 47.4359 46.7579 47.5281 46.5353C47.6202 46.3128 47.6677 46.0742 47.6677 45.8333C47.6677 45.5924 47.6202 45.3539 47.5281 45.1314C47.4359 44.9088 47.3008 44.7066 47.1304 44.5363L43.4638 40.8696ZM9.16667 27.5C9.16667 27.0138 8.97351 26.5475 8.6297 26.2036C8.28588 25.8598 7.81956 25.6667 7.33333 25.6667H1.83333C1.3471 25.6667 0.880788 25.8598 0.536971 26.2036C0.193154 26.5475 0 27.0138 0 27.5C0 27.9862 0.193154 28.4525 0.536971 28.7964C0.880788 29.1402 1.3471 29.3333 1.83333 29.3333H7.33333C7.81956 29.3333 8.28588 29.1402 8.6297 28.7964C8.97351 28.4525 9.16667 27.9862 9.16667 27.5ZM27.5 45.8333C27.0138 45.8333 26.5475 46.0265 26.2036 46.3703C25.8598 46.7141 25.6667 47.1804 25.6667 47.6667V53.1667C25.6667 53.6529 25.8598 54.1192 26.2036 54.463C26.5475 54.8068 27.0138 55 27.5 55C27.9862 55 28.4525 54.8068 28.7964 54.463C29.1402 54.1192 29.3333 53.6529 29.3333 53.1667V47.6667C29.3333 47.1804 29.1402 46.7141 28.7964 46.3703C28.4525 46.0265 27.9862 45.8333 27.5 45.8333ZM53.1667 25.6667H47.6667C47.1804 25.6667 46.7141 25.8598 46.3703 26.2036C46.0265 26.5475 45.8333 27.0138 45.8333 27.5C45.8333 27.9862 46.0265 28.4525 46.3703 28.7964C46.7141 29.1402 47.1804 29.3333 47.6667 29.3333H53.1667C53.6529 29.3333 54.1192 29.1402 54.463 28.7964C54.8068 28.4525 55 27.9862 55 27.5C55 27.0138 54.8068 26.5475 54.463 26.2036C54.1192 25.8598 53.6529 25.6667 53.1667 25.6667Z" fill="#BF7F04"/>
</svg>
